<?xml version="1.0" encoding="UTF-8"?>
<svg width="24px" height="24px" viewBox="0 0 24 24" version="1.1" xmlns="http://www.w3.org/2000/svg" xmlns:xlink="http://www.w3.org/1999/xlink">
    <!-- Generator: Sketch 47 (45396) - http://www.bohemiancoding.com/sketch -->
    <title>Social/Youtube</title>
    <desc>Created with Sketch.</desc>
    <defs></defs>
    <g id="05-SKETCH-SYMBOLS" stroke="none" stroke-width="1" fill="none" fill-rule="evenodd">
        <g id="Social/Youtube" fill="#FFFFFF">
            <path d="M9.54545455,15.5454773 L9.54545455,8.45452249 L15.8181818,12.0001354 L9.54545455,15.5454773 Z M23.4984545,6.2233741 C23.2224545,5.19071603 22.4091818,4.37754184 21.3766364,4.10156119 C19.5050455,3.5999999 12,3.5999999 12,3.5999999 C12,3.5999999 4.49495455,3.5999999 2.62336364,4.10156119 C1.59081818,4.37754184 0.777545455,5.19071603 0.501545455,6.2233741 C0,8.09494829 0,11.9999999 0,11.9999999 C0,11.9999999 0,15.904916 0.501545455,17.7766257 C0.777545455,18.8092838 1.59081818,19.622458 2.62336364,19.8985741 C4.49495455,20.3999999 12,20.3999999 12,20.3999999 C12,20.3999999 19.5050455,20.3999999 21.3766364,19.8985741 C22.4091818,19.622458 23.2224545,18.8092838 23.4984545,17.7766257 C24,15.904916 24,11.9999999 24,11.9999999 C24,11.9999999 24,8.09494829 23.4984545,6.2233741 L23.4984545,6.2233741 Z" id="Fill-1"></path>
        </g>
    </g>
</svg>